<svg xmlns="http://www.w3.org/2000/svg" viewBox="0 0 500.65 80.18">
  <defs>
    <style>
      .cls-1 {
        isolation: isolate;
      }
      .cls-2 {
        fill: #80d926;
      }
      .cls-2, .cls-3, .cls-4 {
        mix-blend-mode: multiply;
      }
      .cls-3 {
        fill: #226d9a;
      }
      .cls-4 {
        fill: #f15a2a;
      }
    </style>
  </defs>
  <title>subsideIT</title>
  <g class="cls-1">
    <g id="subsideLogo">
      <g id="it">
        <g>
          <path class="cls-2" d="M439.78,26.53a1.24,1.24,0,0,1,1.41,1.41v42a1.24,1.24,0,0,1-1.41,1.41h-6.91q-1.47,0-1.47-1.41v-42q0-1.41,1.47-1.41Z" transform="translate(-5.62 -6.46)"/>
          <path class="cls-2" d="M504.8,26.53q1.47,0,1.47,1.41v6.27a1.3,1.3,0,0,1-1.47,1.47H484.7V69.93a1.24,1.24,0,0,1-1.41,1.41h-7a1.24,1.24,0,0,1-1.41-1.41V35.69h-20.1a1.3,1.3,0,0,1-1.47-1.47V27.94q0-1.41,1.47-1.41Z" transform="translate(-5.62 -6.46)"/>
        </g>
        <g id="i.">
          <path class="cls-2" d="M454.65,62.93A1.17,1.17,0,0,1,456,64.25V70a1.17,1.17,0,0,1-1.32,1.32h-5.88q-1.38,0-1.38-1.32V64.25q0-1.32,1.38-1.32Z" transform="translate(-5.62 -6.46)"/>
        </g>
        <g id="t.">
          <path class="cls-2" d="M498.65,62.93A1.17,1.17,0,0,1,500,64.25V70a1.17,1.17,0,0,1-1.32,1.32h-5.88q-1.38,0-1.38-1.32V64.25q0-1.32,1.38-1.32Z" transform="translate(-5.62 -6.46)"/>
        </g>
      </g>
      <g id="subside">
        <path class="cls-3" d="M144.37,26.53a1.24,1.24,0,0,1,1.41,1.41V34a1.24,1.24,0,0,1-1.41,1.41H112.31a3.18,3.18,0,0,0-2.62,1,4.09,4.09,0,0,0-.77,2.62v2.18q0,3.59,3.33,3.58h24q5.57,0,8.38,2.85t2.82,8.16V60.9a10.48,10.48,0,0,1-2.75,7.55q-2.75,2.88-8.58,2.88H100.66q-1.47,0-1.47-1.41V63.85q0-1.41,1.47-1.41h33.6a3.18,3.18,0,0,0,2.62-1,4.09,4.09,0,0,0,.77-2.62V56.23q0-3.58-3.33-3.58h-24q-5.57,0-8.38-2.85t-2.82-8.16V37a10.48,10.48,0,0,1,2.75-7.55q2.75-2.88,8.58-2.88Z" transform="translate(-5.62 -6.46)"/>
        <path class="cls-3" d="M158.17,38.39q1.32,0,1.32,1.38V57.11a17.44,17.44,0,0,0,.24,3.18,4.15,4.15,0,0,0,.9,2,3.71,3.71,0,0,0,1.86,1.08,12.35,12.35,0,0,0,3.18.33h15.42a13.09,13.09,0,0,0,3.24-.33,4.32,4.32,0,0,0,2-1.08,4.13,4.13,0,0,0,1.05-2,14.07,14.07,0,0,0,.3-3.18V39.77q0-1.38,1.32-1.38h5.88q1.32,0,1.32,1.38V59.21a18.78,18.78,0,0,1-.72,5.55,8.21,8.21,0,0,1-2.37,3.78,10,10,0,0,1-4.41,2.13,29.58,29.58,0,0,1-6.78.66H165.19a29.49,29.49,0,0,1-6.81-.66A10,10,0,0,1,154,68.54a8.2,8.2,0,0,1-2.37-3.78,18.78,18.78,0,0,1-.72-5.55V39.77a1.22,1.22,0,0,1,1.38-1.38Z" transform="translate(-5.62 -6.46)"/>
        <path class="cls-3" d="M207.73,26.33a1.17,1.17,0,0,1,1.32,1.32V38.39h22.5a28.45,28.45,0,0,1,6.78.69,10.26,10.26,0,0,1,4.41,2.16A8.23,8.23,0,0,1,245.11,45a18.81,18.81,0,0,1,.72,5.55v8.64a18.8,18.8,0,0,1-.72,5.55,8.21,8.21,0,0,1-2.37,3.78,10,10,0,0,1-4.41,2.13,29.58,29.58,0,0,1-6.78.66h-16.8a29.48,29.48,0,0,1-6.81-.66,10,10,0,0,1-4.38-2.13,8.2,8.2,0,0,1-2.37-3.78,18.76,18.76,0,0,1-.72-5.55V27.65q0-1.32,1.38-1.32Zm1.32,19.26V57.53a14,14,0,0,0,.3,3.18,4.1,4.1,0,0,0,1,2,4.32,4.32,0,0,0,2,1.08,12.84,12.84,0,0,0,3.18.33h15.12A13.14,13.14,0,0,0,234,63.8a4.33,4.33,0,0,0,2-1.08,4.12,4.12,0,0,0,1-2,14,14,0,0,0,.3-3.18V52.19A14.13,14.13,0,0,0,237,49a4.13,4.13,0,0,0-1-2,4.33,4.33,0,0,0-2-1.08,13.16,13.16,0,0,0-3.24-.33Z" transform="translate(-5.62 -6.46)"/>
        <path class="cls-3" d="M294.84,26.53a1.25,1.25,0,0,1,1.41,1.41V34a1.25,1.25,0,0,1-1.41,1.41H262.77a3.18,3.18,0,0,0-2.62,1,4.09,4.09,0,0,0-.77,2.62v2.18q0,3.59,3.33,3.58h24q5.57,0,8.38,2.85t2.82,8.16V60.9a10.48,10.48,0,0,1-2.75,7.55q-2.75,2.88-8.58,2.88H251.13q-1.47,0-1.47-1.41V63.85q0-1.41,1.47-1.41h33.6a3.18,3.18,0,0,0,2.62-1,4.09,4.09,0,0,0,.77-2.62V56.23q0-3.58-3.33-3.58h-24q-5.57,0-8.38-2.85t-2.82-8.16V37a10.48,10.48,0,0,1,2.75-7.55q2.75-2.88,8.58-2.88Z" transform="translate(-5.62 -6.46)"/>
        <path class="cls-3" d="M308.82,26.21a1.17,1.17,0,0,1,1.32,1.32v5.7q0,1.38-1.32,1.38h-5.88a1.22,1.22,0,0,1-1.38-1.38v-5.7q0-1.32,1.38-1.32Zm0,12.18q1.32,0,1.32,1.38V70a1.17,1.17,0,0,1-1.32,1.32h-5.88A1.17,1.17,0,0,1,301.62,70V39.77q0-1.38,1.32-1.38Z" transform="translate(-5.62 -6.46)"/>
        <path class="cls-3" d="M351.06,38.39V27.65a1.17,1.17,0,0,1,1.32-1.32h5.88a1.17,1.17,0,0,1,1.32,1.32V59.21a18.77,18.77,0,0,1-.72,5.55,8.21,8.21,0,0,1-2.37,3.78,10,10,0,0,1-4.41,2.13,29.58,29.58,0,0,1-6.78.66H328.5a29.49,29.49,0,0,1-6.81-.66,10,10,0,0,1-4.38-2.13,8.21,8.21,0,0,1-2.37-3.78,18.8,18.8,0,0,1-.72-5.55V50.57a18.81,18.81,0,0,1,.72-5.55,8.22,8.22,0,0,1,2.37-3.78,10.24,10.24,0,0,1,4.38-2.16,28.36,28.36,0,0,1,6.81-.69Zm-6.6,25.74a13.14,13.14,0,0,0,3.24-.33,4.34,4.34,0,0,0,2-1.08,4.13,4.13,0,0,0,1-2,14.09,14.09,0,0,0,.3-3.18V45.59H329.34a12.86,12.86,0,0,0-3.18.33,4.33,4.33,0,0,0-2,1.08,4.12,4.12,0,0,0-1,2,14.08,14.08,0,0,0-.3,3.15v5.34a14,14,0,0,0,.3,3.18,4.1,4.1,0,0,0,1,2,4.33,4.33,0,0,0,2,1.08,12.84,12.84,0,0,0,3.18.33Z" transform="translate(-5.62 -6.46)"/>
        <path class="cls-3" d="M394.56,38.39a21.1,21.1,0,0,1,5.07.51,6.73,6.73,0,0,1,3.18,1.68,6.48,6.48,0,0,1,1.65,3.06,18.89,18.89,0,0,1,.48,4.59v5.7a3.47,3.47,0,0,1-.84,2.67,3.78,3.78,0,0,1-2.58.75h-30.3v1.44a5.36,5.36,0,0,0,1.35,4.08q1.35,1.26,5.25,1.26h25a1,1,0,0,1,1.08,1.08v5a1,1,0,0,1-1.08,1.08H377a29.5,29.5,0,0,1-6.81-.66,10,10,0,0,1-4.38-2.13,8.21,8.21,0,0,1-2.37-3.78,18.8,18.8,0,0,1-.72-5.55V50.57a18.81,18.81,0,0,1,.72-5.55,8.22,8.22,0,0,1,2.37-3.78,10.24,10.24,0,0,1,4.38-2.16,28.37,28.37,0,0,1,6.81-.69ZM371.22,52h24.3a.9.9,0,0,0,1-1V48.47a3.66,3.66,0,0,0-.78-2.64,4.07,4.07,0,0,0-2.88-.78H377.82q-3.9,0-5.25,1.23t-1.35,4.11Z" transform="translate(-5.62 -6.46)"/>
      </g>
      <g id="rings">
        <path class="cls-3" d="M28.84,66.79C45.42,83.37,64.6,91.09,71.68,84S71,57.75,54.46,41.17,18.69,16.88,11.62,23.95,12.25,50.21,28.84,66.79ZM14.6,27.53c5.39-5.39,20,.49,32.66,13.12S65.78,67.91,60.38,73.31s-20-.49-32.65-13.13S9.21,32.92,14.6,27.53Z" transform="translate(-5.62 -6.46)"/>
        <path class="cls-2" d="M49,56.5c21-6.5,35.78-19,33-28S60,17.56,39,24.06,3.18,43.09,6,52,28,63,49,56.5ZM10.53,51c-2.37-7.65,10.26-18.37,28.2-23.92s34.41-3.85,36.78,3.81S65.24,49.3,47.3,54.85,12.89,58.7,10.53,51Z" transform="translate(-5.62 -6.46)"/>
        <path class="cls-4" d="M57.72,53.28c17.42-16.87,25.69-36.55,18.5-44s-27.14.23-44.55,17.09S6,62.94,13.17,70.37,40.31,70.14,57.72,53.28ZM17.17,67.1C11,60.76,18.1,43.94,33,29.53S64.88,8.58,71,14.93,70.11,38.1,55.23,52.51,23.31,73.45,17.17,67.1Z" transform="translate(-5.62 -6.46)"/>
      </g>
    </g>
  </g>
</svg>
